<svg xmlns="http://www.w3.org/2000/svg" viewBox="0 0 729.2 94.48"><defs><style>.cls-1,.cls-2{fill:#fff;}.cls-2{isolation:isolate;}</style></defs><title>logo-shamanhealth-white</title><g id="Layer_2" data-name="Layer 2"><g id="Layer_1-2" data-name="Layer 1"><path class="cls-1" d="M47.23,0A47.24,47.24,0,1,0,94.48,47.24,47.24,47.24,0,0,0,47.23,0Zm7.19,13.63c3.09-.92,6.1,0,6.72,2.07a2.46,2.46,0,0,1,.07.33v.07l1.92,16.49a1.62,1.62,0,0,1-1.09,2l-2,.64a1.63,1.63,0,0,1-2-1.09L50,19.47a1.57,1.57,0,0,1-.06-.49c-.55-2.06,1.44-4.44,4.5-5.35ZM37.65,15.1c3-2.16,6.7-2.1,8.34.15a3.11,3.11,0,0,1,.23.37l.07.08L56,34.64a2,2,0,0,1-.26,2.78l-2,1.45a2,2,0,0,1-2.73-.6L35.48,23.57a2.24,2.24,0,0,1-.29-.57C33.64,20.75,34.72,17.24,37.65,15.1ZM24.51,25.94c2.11-3,5.74-4.09,8.12-2.42a3.82,3.82,0,0,1,.35.29l.09,0,16.09,15.3a2.39,2.39,0,0,1,.91,1.2,6.08,6.08,0,0,0-3.88,4.12,2.44,2.44,0,0,1-.56-.29L25.38,34.8a2.53,2.53,0,0,1-.48-.46C22.61,32.64,22.42,28.91,24.51,25.94ZM48.23,50.81A6,6,0,0,0,53.17,52a20.74,20.74,0,0,0-.84,4.49c-.11,1.33-1.22,1.83-2.54,1.83h-.21c-1.4-.11-2.45-.83-2.34-2.23A25.61,25.61,0,0,1,48.23,50.81ZM21.4,49.51c-2.6-.83-3.89-4.28-2.87-7.76s4-5.75,6.7-5l.41.15h.1L45,46a2.26,2.26,0,0,1,1,.57,6,6,0,0,0,.48,1.92l-.65,2.23a2,2,0,0,1-2.53,1.19L22,49.78A2.38,2.38,0,0,1,21.4,49.51ZM27.21,64c-2.12.1-4-2.35-4.26-5.53s1.3-6,3.46-6.12h.42L43.35,54a1.62,1.62,0,0,1,1.74,1.49h0l.16,2.15a1.63,1.63,0,0,1-1.5,1.74L27.71,64A1.58,1.58,0,0,1,27.21,64Zm21.44,7.24c-2.65,3.69-6.2,7.33-6.87,12.1s-.92-.06-.92-.06c0-8.11,3.2-12.65,6.63-17.46,2.46-3.46,6-9.15,6.54-12.2.12-.66.21-1.31.28-1.88l.48-.22c0,.55.09,1.29.15,2.25.37,6.23-2.85,12.62-6.29,17.42ZM52,50.35a4.25,4.25,0,1,1,4.25-4.26A4.25,4.25,0,0,1,52,50.35Zm12.56-9.18a15.74,15.74,0,0,0-6.68,3.47,6.08,6.08,0,0,0-3.18-4,20.12,20.12,0,0,1,8.91-4.52c1-.2,1.84.35,2.25,1.77s.14,3-1.27,3.28Z"/><path class="cls-1" d="M515.18,71.53h-3.78V50.27H485.13V71.53h-3.78V25.32h3.78V47h26.28V25.32h3.78Zm43.35-22.38H536.28V68.29h25.49v3.24H532.51V25.32h29.1v3.24H536.28V45.92h22.25ZM600,58.64H578.81L574,71.53h-3.94l17.55-46.21h3.59l17.42,46.21h-3.94Zm-19.9-3.4h18.66l-9.2-25h-.19Zm44.68,13h22.85v3.24H621V25.32h3.81Zm57.89-39.74h-15.9v43h-3.81v-43H647V25.32h35.61Zm46.55,43h-3.78V50.27H699.14V71.53h-3.78V25.32h3.78V47h26.28V25.32h3.78Z"/><path class="cls-2" d="M142.79,31.71A9.88,9.88,0,0,0,137.4,33a4.47,4.47,0,0,0-2.1,4,4.7,4.7,0,0,0,2.1,4.14q2.1,1.43,9,3.09T156.68,49q3.47,3,3.47,8.82a11.68,11.68,0,0,1-4.4,9.46q-4.4,3.63-11.54,3.63a27.1,27.1,0,0,1-18.55-7.2L130.39,58q6.75,5.86,14,5.86a9.58,9.58,0,0,0,5.77-1.56,4.88,4.88,0,0,0,2.13-4.14,4.65,4.65,0,0,0-2-4,21.14,21.14,0,0,0-6.91-2.61,61.87,61.87,0,0,1-7.46-2.17,16.8,16.8,0,0,1-4.53-2.58q-4-3-4-9.17A11.16,11.16,0,0,1,132,28.11a18.11,18.11,0,0,1,11.12-3.34,26.69,26.69,0,0,1,8.48,1.4,22.18,22.18,0,0,1,7.27,3.95l-4,5.67a15.22,15.22,0,0,0-5.35-2.93A20.66,20.66,0,0,0,142.79,31.71Zm33,38.66V25.85h7.52v19.3h22.12V25.85H213V70.37h-7.52V52.15H183.36V70.37ZM238,60.24l-4.46,10.13h-8l19.63-44.52h8l19.63,44.52h-8l-4.46-10.13Zm19.25-6.94L249.19,35,241.1,53.3Zm35.63,17.07h-7.52V25.85h11.73l13.45,28,13.45-28h11.66V70.37h-7.52V35.6L312.6,66.49H308.4L292.91,35.6Zm67.81-10.13-4.46,10.13h-8l19.63-44.52h8l19.63,44.52h-8L383,60.24ZM380,53.3,371.87,35,363.78,53.3Zm61.5-27.45H449V70.37h-8.16L415.59,37.89V70.37h-7.52V25.85h7.52L441.47,59.1Z"/></g></g></svg>